<svg width="19" height="18" viewBox="0 0 19 18" fill="none" xmlns="http://www.w3.org/2000/svg">
<path d="M9.5 1.5C7.535 1.5 5.9375 3.0975 5.9375 5.0625C5.9375 6.99 7.445 8.55 9.41 8.6175C9.47 8.61 9.53 8.61 9.575 8.6175C9.59 8.6175 9.5975 8.6175 9.6125 8.6175C9.62 8.6175 9.62 8.6175 9.6275 8.6175C11.5475 8.55 13.055 6.99 13.0625 5.0625C13.0625 3.0975 11.465 1.5 9.5 1.5Z" fill="#595956"/>
<path d="M13.31 10.6124C11.2175 9.21741 7.80497 9.21741 5.69747 10.6124C4.74497 11.2499 4.21997 12.1124 4.21997 13.0349C4.21997 13.9574 4.74497 14.8124 5.68997 15.4424C6.73997 16.1474 8.11997 16.4999 9.49997 16.4999C10.88 16.4999 12.26 16.1474 13.31 15.4424C14.255 14.8049 14.78 13.9499 14.78 13.0199C14.7725 12.0974 14.255 11.2424 13.31 10.6124Z" fill="#595956"/>
</svg>
