<svg width="16" height="16" viewBox="0 0 16 16" fill="none" xmlns="http://www.w3.org/2000/svg">
<path d="M11.1667 2.37325V1.33325C11.1667 1.05992 10.94 0.833252 10.6667 0.833252C10.3933 0.833252 10.1667 1.05992 10.1667 1.33325V2.33325H5.83332V1.33325C5.83332 1.05992 5.60666 0.833252 5.33332 0.833252C5.05999 0.833252 4.83332 1.05992 4.83332 1.33325V2.37325C3.03332 2.53992 2.15999 3.61325 2.02666 5.20658C2.01332 5.39992 2.17332 5.55992 2.35999 5.55992H13.64C13.8333 5.55992 13.9933 5.39325 13.9733 5.20658C13.84 3.61325 12.9667 2.53992 11.1667 2.37325Z" fill="#595956"/>
<path d="M13.3333 6.56006H2.66667C2.3 6.56006 2 6.86006 2 7.22673V11.3334C2 13.3334 3 14.6667 5.33333 14.6667H8.62C9.08 14.6667 9.4 14.2201 9.25333 13.7867C9.12 13.4001 9.00667 12.9734 9.00667 12.6667C9.00667 10.6467 10.6533 9.00006 12.6733 9.00006C12.8667 9.00006 13.06 9.01339 13.2467 9.04673C13.6467 9.10672 14.0067 8.79339 14.0067 8.39339V7.23339C14 6.86006 13.7 6.56006 13.3333 6.56006ZM6.14 11.8067C6.07333 11.8667 6 11.9134 5.92 11.9467C5.84 11.9801 5.75333 12.0001 5.66667 12.0001C5.58 12.0001 5.49333 11.9801 5.41333 11.9467C5.33333 11.9134 5.26 11.8667 5.19333 11.8067C5.07333 11.6801 5 11.5067 5 11.3334C5 11.2934 5.00667 11.2467 5.01333 11.2067C5.02 11.1601 5.03333 11.1201 5.05333 11.0801C5.06667 11.0401 5.08667 11.0001 5.11333 10.9601C5.13333 10.9267 5.16667 10.8934 5.19333 10.8601C5.26 10.8001 5.33333 10.7534 5.41333 10.7201C5.57333 10.6534 5.76 10.6534 5.92 10.7201C6 10.7534 6.07333 10.8001 6.14 10.8601C6.16667 10.8934 6.2 10.9267 6.22 10.9601C6.24667 11.0001 6.26667 11.0401 6.28 11.0801C6.3 11.1201 6.31333 11.1601 6.32 11.2067C6.32667 11.2467 6.33333 11.2934 6.33333 11.3334C6.33333 11.5067 6.26 11.6801 6.14 11.8067ZM6.14 9.47339C6.07333 9.53339 6 9.58006 5.92 9.61339C5.84 9.64673 5.75333 9.66673 5.66667 9.66673C5.58 9.66673 5.49333 9.64673 5.41333 9.61339C5.32667 9.58006 5.26 9.53339 5.19333 9.47339C5.07333 9.34673 5 9.17339 5 9.00006C5 8.82673 5.07333 8.65339 5.19333 8.52673C5.26 8.46673 5.33333 8.42006 5.41333 8.38673C5.57333 8.32006 5.76 8.32006 5.92 8.38673C6 8.42006 6.07333 8.46673 6.14 8.52673C6.16667 8.56006 6.2 8.59339 6.22 8.62672C6.24667 8.66672 6.26667 8.70673 6.28 8.74673C6.3 8.78673 6.31333 8.82673 6.32 8.86673C6.32667 8.91339 6.33333 8.96006 6.33333 9.00006C6.33333 9.17339 6.26 9.34673 6.14 9.47339ZM8.47333 9.47339C8.34667 9.59339 8.18 9.66673 8 9.66673C7.91333 9.66673 7.82667 9.64673 7.74667 9.61339C7.66 9.58006 7.59333 9.53339 7.52667 9.47339C7.40667 9.34673 7.33333 9.17339 7.33333 9.00006C7.33333 8.96006 7.34 8.91339 7.34667 8.86673C7.35333 8.82673 7.36667 8.78673 7.38667 8.74673C7.4 8.70673 7.42 8.66672 7.44667 8.62672C7.47333 8.59339 7.5 8.56006 7.52667 8.52673C7.77333 8.28006 8.22 8.28006 8.47333 8.52673C8.5 8.56006 8.52667 8.59339 8.55333 8.62672C8.58 8.66672 8.6 8.70673 8.61333 8.74673C8.63333 8.78673 8.64667 8.82673 8.65333 8.86673C8.66 8.91339 8.66667 8.96006 8.66667 9.00006C8.66667 9.17339 8.59333 9.34673 8.47333 9.47339Z" fill="#595956"/>
<path d="M14.5533 10.78C13.5133 9.74 11.82 9.74 10.78 10.78C9.74 11.82 9.74 13.5133 10.78 14.5533C11.82 15.5933 13.5133 15.5933 14.5533 14.5533C15.5933 13.5133 15.5933 11.82 14.5533 10.78ZM14.0467 13.04C13.96 13.1333 13.8333 13.1867 13.6933 13.1867H13.2V13.7067C13.2 13.8467 13.1467 13.9667 13.0533 14.06C12.96 14.1533 12.84 14.2067 12.7 14.2067C12.4267 14.2067 12.2 13.98 12.2 13.7067V13.1867H11.7C11.4267 13.1867 11.2 12.9667 11.2 12.6867C11.2 12.4133 11.4267 12.1867 11.7 12.1867H12.2V11.7133C12.2 11.44 12.42 11.2133 12.7 11.2133C12.9733 11.2133 13.2 11.44 13.2 11.7133V12.1867H13.6933C13.9733 12.1867 14.1933 12.4133 14.1933 12.6867C14.1933 12.8267 14.14 12.9533 14.0467 13.04Z" fill="#595956"/>
</svg>
