<svg width="19" height="18" viewBox="0 0 19 18" fill="none" xmlns="http://www.w3.org/2000/svg">
<path d="M17.27 6.2025L17.0525 4.125C16.7375 1.86 15.71 0.9375 13.5125 0.9375H11.7425H10.6325H8.35248H7.24248H5.44248C3.23748 0.9375 2.21748 1.86 1.89498 4.1475L1.69248 6.21C1.61748 7.0125 1.83498 7.7925 2.30748 8.4C2.87748 9.1425 3.75498 9.5625 4.72998 9.5625C5.67498 9.5625 6.58248 9.09 7.15248 8.3325C7.66248 9.09 8.53248 9.5625 9.49998 9.5625C10.4675 9.5625 11.315 9.1125 11.8325 8.3625C12.41 9.105 13.3025 9.5625 14.2325 9.5625C15.23 9.5625 16.13 9.12 16.6925 8.34C17.1425 7.74 17.345 6.9825 17.27 6.2025Z" fill="#595956"/>
<path d="M9.01253 12.4949C8.06003 12.5924 7.34003 13.4024 7.34003 14.3624V16.4174C7.34003 16.6199 7.50503 16.7849 7.70753 16.7849H11.285C11.4875 16.7849 11.6525 16.6199 11.6525 16.4174V14.6249C11.66 13.0574 10.7375 12.3149 9.01253 12.4949Z" fill="#595956"/>
<path d="M16.5275 10.8001V13.0351C16.5275 15.1051 14.8475 16.7851 12.7775 16.7851C12.575 16.7851 12.41 16.6201 12.41 16.4176V14.6251C12.41 13.6651 12.1175 12.9151 11.5475 12.4051C11.045 11.9476 10.3625 11.7226 9.51497 11.7226C9.32747 11.7226 9.13997 11.7301 8.93747 11.7526C7.60247 11.8876 6.58997 13.0126 6.58997 14.3626V16.4176C6.58997 16.6201 6.42497 16.7851 6.22247 16.7851C4.15247 16.7851 2.47247 15.1051 2.47247 13.0351V10.8151C2.47247 10.2901 2.98997 9.93756 3.47747 10.1101C3.67997 10.1776 3.88247 10.2301 4.09247 10.2601C4.18247 10.2751 4.27997 10.2901 4.36997 10.2901C4.48997 10.3051 4.60997 10.3126 4.72997 10.3126C5.59997 10.3126 6.45497 9.99006 7.12997 9.43506C7.77497 9.99006 8.61497 10.3126 9.49997 10.3126C10.3925 10.3126 11.2175 10.0051 11.8625 9.45006C12.5375 9.99756 13.3775 10.3126 14.2325 10.3126C14.3675 10.3126 14.5025 10.3051 14.63 10.2901C14.72 10.2826 14.8025 10.2751 14.885 10.2601C15.1175 10.2301 15.3275 10.1626 15.5375 10.0951C16.025 9.93006 16.5275 10.2901 16.5275 10.8001Z" fill="#595956"/>
</svg>
