<svg width="32" height="32" viewBox="0 0 32 32" fill="none" xmlns="http://www.w3.org/2000/svg">
<circle cx="16" cy="16" r="16" fill="#060089" fill-opacity="0.1"/>
<path d="M21.3656 15.8413L14.3656 23.3413C14.2914 23.4205 14.1935 23.4734 14.0866 23.492C13.9797 23.5106 13.8697 23.494 13.7731 23.4446C13.6765 23.3952 13.5986 23.3157 13.5511 23.2182C13.5037 23.1206 13.4892 23.0103 13.51 22.9038L14.4262 18.3207L10.8243 16.9682C10.747 16.9392 10.678 16.8916 10.6236 16.8295C10.5691 16.7674 10.5309 16.6928 10.5123 16.6123C10.4937 16.5318 10.4954 16.448 10.5171 16.3683C10.5389 16.2886 10.58 16.2156 10.6368 16.1557L17.6368 8.65568C17.711 8.57651 17.8089 8.52362 17.9158 8.50499C18.0227 8.48636 18.1327 8.50299 18.2293 8.55238C18.3259 8.60177 18.4038 8.68124 18.4513 8.77879C18.4988 8.87635 18.5132 8.98669 18.4925 9.09318L17.5737 13.6813L21.1756 15.0319C21.2524 15.0611 21.3208 15.1087 21.3748 15.1705C21.4288 15.2324 21.4668 15.3066 21.4853 15.3866C21.5039 15.4666 21.5024 15.5499 21.4811 15.6292C21.4598 15.7085 21.4192 15.7814 21.3631 15.8413H21.3656Z" fill="black"/>
</svg>
