<svg width="32" height="32" viewBox="0 0 32 32" fill="none" xmlns="http://www.w3.org/2000/svg">
<circle cx="16" cy="16" r="16" fill="#060089" fill-opacity="0.1"/>
<path d="M16.02 6.90991C12.71 6.90991 10.02 9.59991 10.02 12.9099V15.7999C10.02 16.4099 9.76003 17.3399 9.45003 17.8599L8.30003 19.7699C7.59003 20.9499 8.08003 22.2599 9.38003 22.6999C13.69 24.1399 18.34 24.1399 22.65 22.6999C23.86 22.2999 24.39 20.8699 23.73 19.7699L22.58 17.8599C22.28 17.3399 22.02 16.4099 22.02 15.7999V12.9099C22.02 9.60991 19.32 6.90991 16.02 6.90991Z" fill="black" stroke="#292D32" stroke-width="1.5" stroke-miterlimit="10" stroke-linecap="round"/>
<path d="M17.87 7.19994C17.56 7.10994 17.24 7.03994 16.91 6.99994C15.95 6.87994 15.03 6.94994 14.17 7.19994C14.46 6.45994 15.18 5.93994 16.02 5.93994C16.86 5.93994 17.58 6.45994 17.87 7.19994Z" fill="black" stroke="#292D32" stroke-width="1.5" stroke-miterlimit="10" stroke-linecap="round" stroke-linejoin="round"/>
<path d="M19.02 23.0601C19.02 24.7101 17.67 26.0601 16.02 26.0601C15.2 26.0601 14.44 25.7201 13.9 25.1801C13.36 24.6401 13.02 23.8801 13.02 23.0601" stroke="#292D32" stroke-width="1.5" stroke-miterlimit="10"/>
</svg>
