<svg width="16" height="16" viewBox="0 0 16 16" fill="none" xmlns="http://www.w3.org/2000/svg">
<path d="M14.3 9.09334V9.76001C14.3 9.94001 14.16 10.0867 13.9733 10.0933H13C12.6467 10.0933 12.3267 9.83334 12.3 9.48668C12.28 9.28001 12.36 9.08668 12.4933 8.95334C12.6133 8.82668 12.78 8.76001 12.96 8.76001H13.9667C14.16 8.76668 14.3 8.91334 14.3 9.09334Z" fill="#595956"/>
<path d="M11.9934 8.45993C11.66 8.78659 11.5 9.27326 11.6334 9.77993C11.8067 10.3999 12.4134 10.7933 13.0534 10.7933H13.6334C14 10.7933 14.3 11.0933 14.3 11.4599V11.5866C14.3 12.9666 13.1734 14.0933 11.7934 14.0933H4.14003C2.76003 14.0933 1.63336 12.9666 1.63336 11.5866V7.09993C1.63336 6.27993 2.0267 5.55326 2.63336 5.09993C3.05336 4.77993 3.57336 4.59326 4.14003 4.59326H11.7934C13.1734 4.59326 14.3 5.71993 14.3 7.09993V7.39326C14.3 7.75993 14 8.05993 13.6334 8.05993H12.9534C12.58 8.05993 12.24 8.20659 11.9934 8.45993Z" fill="#595956"/>
<path d="M10.8 3.21325C10.98 3.39325 10.8267 3.67325 10.5734 3.67325L5.45335 3.66659C5.16002 3.66659 5.00669 3.30659 5.22002 3.09992L6.30002 2.01325C7.21335 1.10659 8.69335 1.10659 9.60669 2.01325L10.7734 3.19325C10.78 3.19992 10.7934 3.20659 10.8 3.21325Z" fill="#595956"/>
</svg>
